<mxfile host="app.diagrams.net" modified="2024-03-02T08:11:27.168Z" agent="Mozilla/5.0 (Macintosh; Intel Mac OS X 10_15_7) AppleWebKit/537.36 (KHTML, like Gecko) Chrome/122.0.0.0 Safari/537.36" version="23.1.7" etag="0iPb5coH9WgFm8zXF5kw" type="github">
  <diagram name="第 1 页" id="6lAaMFStZ_loDxn9aPOL">
    <mxGraphModel>
      <root>
        <mxCell id="0" />
        <mxCell id="1" parent="0" />
      </root>
    </mxGraphModel>
  </diagram>
</mxfile>
